<?xml version="1.0" encoding="iso-8859-1"?>
<svg version="1.1" id="Layer_1" xmlns="http://www.w3.org/2000/svg" xmlns:xlink="http://www.w3.org/1999/xlink" x="0px" y="0px"
	 viewBox="0 0 473.931 473.931" style="enable-background:new 0 0 473.931 473.931;" xml:space="preserve">
<linearGradient id="SVGID_1_" gradientUnits="userSpaceOnUse" x1="256" x2="256" y1="512" y2="0">
  <stop offset="0" stop-color="#ff3051"/>
  <stop offset="1" stop-color="#ffa68d"/>
</linearGradient>
<circle fill="url(#SVGID_1_)" cx="236.966" cy="236.966" r="236.966"/>
<path style="fill:#ECA448;" d="M324.149,147.755c0-6.514-5.283-11.801-11.802-11.801h-45.646c-6.526,0-11.809,5.287-11.809,11.801
	v116.713l69.256-69.26V147.755z"/>
<g>
	<path style="fill:#FFFFFF;" d="M324.149,326.151c0,6.518-5.283,11.802-11.802,11.802h-45.646c-6.526,0-11.809-5.283-11.809-11.802
		V147.755c0-6.514,5.283-11.801,11.809-11.801h45.646c6.518,0,11.802,5.287,11.802,11.801L324.149,326.151L324.149,326.151z"/>
	<path style="fill:#FFFFFF;" d="M219.016,326.151c0,6.518-5.283,11.802-11.802,11.802h-45.657c-6.518,0-11.802-5.283-11.802-11.802
		V147.755c0-6.514,5.283-11.801,11.802-11.801h45.653c6.518,0,11.801,5.287,11.801,11.801v178.396H219.016z"/>
</g>

</svg>
