<?xml version="1.0"?>
<svg xmlns="http://www.w3.org/2000/svg" xmlns:xlink='http://www.w3.org/1999/xlink'>

  <symbol id="star" xmlns="http://www.w3.org/2000/svg" 
    viewBox="0 0 512.001 512.001" style="enable-background:new 0 0 512.001 512.001;" xml:space="preserve">
    <path style="fill:#FFDC64;" d="M499.92,188.26l-165.839-15.381L268.205,19.91c-4.612-10.711-19.799-10.711-24.411,0l-65.875,152.97
      L12.08,188.26c-11.612,1.077-16.305,15.52-7.544,23.216l125.126,109.922L93.044,483.874c-2.564,11.376,9.722,20.302,19.749,14.348
      L256,413.188l143.207,85.034c10.027,5.954,22.314-2.972,19.75-14.348l-36.619-162.476l125.126-109.922
      C516.225,203.78,511.532,189.337,499.92,188.26z"/>
    <path style="fill:#FFC850;" d="M268.205,19.91c-4.612-10.711-19.799-10.711-24.411,0l-65.875,152.97L12.08,188.26
      c-11.612,1.077-16.305,15.52-7.544,23.216l125.126,109.922L93.044,483.874c-2.564,11.376,9.722,20.302,19.749,14.348l31.963-18.979
      c4.424-182.101,89.034-310.338,156.022-383.697L268.205,19.91z"/>
  </symbol>

<symbol id="trophy" viewBox="0 0 512 512" xmlns="http://www.w3.org/2000/svg"><g><g><path d="m359.801 429.3-103.801-30-103.801 30c-.899 1.8-1.199 3.6-1.199 5.7v62h210v-62c0-2.1-.3-3.9-1.199-5.7z" fill="#646d73"/></g><path d="m361 497v-62c0-2.1-.3-3.9-1.199-5.7l-103.801-30v97.7z" fill="#474f54"/><path d="m497 30h-76.645c.132-5.067.645-9.84.645-15 0-8.401-6.599-15-15-15h-300c-8.401 0-15 6.599-15 15 0 5.16.513 9.933.643 15h-76.643c-8.291 0-15 6.709-15 15v37.998c0 83.754 67.092 151.791 149.773 156.171 17.225 23.716 37.668 41.316 60.927 51.231-3.6 72.9-45.3 123.6-55.199 134.101-1.501 1.199-2.701 2.999-3.301 4.799h207.601c-.601-1.8-1.8-3.6-3.301-4.799-10.2-10.501-51.6-60.901-55.2-134.101 23.264-9.917 43.83-27.521 61.069-51.246 82.61-4.451 149.631-72.449 149.631-156.156v-37.998c0-8.291-6.709-15-15-15zm-467 52.998v-22.998h62.93c3.893 49.578 14.644 102.086 37.24 146.708-56.64-12.755-100.17-63.265-100.17-123.71zm452 0c0 60.414-43.491 110.9-100.089 123.684 22.417-44.621 33.228-96.621 37.159-146.682h62.93z" fill="#fed843"/><path d="m497 30h-76.645c.132-5.067.645-9.84.645-15 0-8.401-6.599-15-15-15h-150v429.3h103.801c-.601-1.8-1.8-3.6-3.301-4.799-10.2-10.501-51.6-60.901-55.2-134.101 23.264-9.917 43.83-27.521 61.069-51.246 82.61-4.451 149.631-72.449 149.631-156.156v-37.998c0-8.291-6.709-15-15-15zm-15 52.998c0 60.414-43.491 110.9-100.089 123.684 22.419-44.621 33.23-96.621 37.159-146.682h62.93z" fill="#fabe2c"/><g id="Trophy_31_"><g><path d="m279.936 190.796-23.936-12.437-23.936 12.437c-5.01 2.578-11.133 2.153-15.732-1.172-4.6-3.34-6.914-8.994-5.977-14.59l4.395-26.646-19.189-18.94c-4.177-4.072-5.454-10.109-3.75-15.322 1.758-5.391 6.416-9.346 12.041-10.195l26.66-4.014 12.07-24.126c5.098-10.166 21.738-10.166 26.836 0l12.07 24.126 26.66 4.014c5.625.85 10.283 4.805 12.041 10.195 1.758 5.405.322 11.338-3.75 15.322l-19.189 18.94 4.395 26.646c.938 5.596-1.377 11.25-5.977 14.59-4.569 3.311-10.681 3.8-15.732 1.172z" fill="#fabe2c"/></g></g><path d="m279.936 190.796c5.052 2.628 11.164 2.139 15.732-1.172 4.6-3.34 6.914-8.994 5.977-14.59l-4.395-26.646 19.189-18.94c4.072-3.984 5.508-9.917 3.75-15.322-1.758-5.391-6.416-9.346-12.041-10.195l-26.66-4.014-12.07-24.126c-2.549-5.083-7.983-7.625-13.418-7.625v110.193z" fill="#ff9100"/><g><path d="m376 512h-240c-8.291 0-15-6.709-15-15s6.709-15 15-15h240c8.291 0 15 6.709 15 15s-6.709 15-15 15z" fill="#474f54"/></g><path d="m376 482h-120v30h120c8.291 0 15-6.709 15-15s-6.709-15-15-15z" fill="#32393f"/></g></symbol>

<symbol xmlns="http://www.w3.org/2000/svg" id="close-btn" width="30" height="30" viewBox="0 0 30 30">
    <path fill-rule="evenodd" clip-rule="evenodd" d="M29.5599 2.56066C30.1457 1.97487 30.1457 1.02512 29.5599 0.439337C28.9741 -0.146448 28.0243 -0.146445 27.4386 0.439343L14.9997 12.8783L2.56112 0.439648C1.97534 -0.14614 1.02559 -0.146143 0.4398 0.439642C-0.145987 1.02543 -0.14599 1.97517 0.439795 2.56096L12.8784 14.9996L0.439337 27.4387C-0.146448 28.0245 -0.146445 28.9743 0.439343 29.56C1.02513 30.1458 1.97488 30.1458 2.56066 29.56L14.9997 17.1209L27.439 29.5603C28.0248 30.1461 28.9745 30.1461 29.5603 29.5604C30.1461 28.9746 30.1461 28.0248 29.5603 27.439L17.121 14.9996L29.5599 2.56066Z"></path>
</symbol>

<symbol id="sound-off" aria-hidden="true" focusable="false" data-prefix="fas" data-icon="volume-mute" role="img" xmlns="http://www.w3.org/2000/svg" viewBox="0 0 512 512" class="svg-inline--fa fa-volume-mute fa-w-16 fa-3x"><path d="M215.03 71.05L126.06 160H24c-13.26 0-24 10.74-24 24v144c0 13.25 10.74 24 24 24h102.06l88.97 88.95c15.03 15.03 40.97 4.47 40.97-16.97V88.02c0-21.46-25.96-31.98-40.97-16.97zM461.64 256l45.64-45.64c6.3-6.3 6.3-16.52 0-22.82l-22.82-22.82c-6.3-6.3-16.52-6.3-22.82 0L416 210.36l-45.64-45.64c-6.3-6.3-16.52-6.3-22.82 0l-22.82 22.82c-6.3 6.3-6.3 16.52 0 22.82L370.36 256l-45.63 45.63c-6.3 6.3-6.3 16.52 0 22.82l22.82 22.82c6.3 6.3 16.52 6.3 22.82 0L416 301.64l45.64 45.64c6.3 6.3 16.52 6.3 22.82 0l22.82-22.82c6.3-6.3 6.3-16.52 0-22.82L461.64 256z"></path></symbol>

<symbol id="sound-on" aria-hidden="true" focusable="false" data-prefix="fas" data-icon="volume-up" role="img" xmlns="http://www.w3.org/2000/svg" viewBox="0 0 576 512" class="svg-inline--fa fa-volume-up fa-w-18 fa-3x"><path d="M215.03 71.05L126.06 160H24c-13.26 0-24 10.74-24 24v144c0 13.25 10.74 24 24 24h102.06l88.97 88.95c15.03 15.03 40.97 4.47 40.97-16.97V88.02c0-21.46-25.96-31.98-40.97-16.97zm233.32-51.08c-11.17-7.33-26.18-4.24-33.51 6.95-7.34 11.17-4.22 26.18 6.95 33.51 66.27 43.49 105.82 116.6 105.82 195.58 0 78.98-39.55 152.09-105.82 195.58-11.17 7.32-14.29 22.34-6.95 33.5 7.04 10.71 21.93 14.56 33.51 6.95C528.27 439.58 576 351.33 576 256S528.27 72.43 448.35 19.97zM480 256c0-63.53-32.06-121.94-85.77-156.24-11.19-7.14-26.03-3.82-33.12 7.46s-3.78 26.21 7.41 33.36C408.27 165.97 432 209.11 432 256s-23.73 90.03-63.48 115.42c-11.19 7.14-14.5 22.07-7.41 33.36 6.51 10.36 21.12 15.14 33.12 7.46C447.94 377.94 480 319.54 480 256zm-141.77-76.87c-11.58-6.33-26.19-2.16-32.61 9.45-6.39 11.61-2.16 26.2 9.45 32.61C327.98 228.28 336 241.63 336 256c0 14.38-8.02 27.72-20.92 34.81-11.61 6.41-15.84 21-9.45 32.61 6.43 11.66 21.05 15.8 32.61 9.45 28.23-15.55 45.77-45 45.77-76.88s-17.54-61.32-45.78-76.86z"></path></symbol>


<symbol id="drop" viewBox="0 0 512 512" style="enable-background:new 0 0 512 512;" xml:space="preserve">
<g>
	<g>
		<path d="M466.271,21.333L256,21.354L45.729,21.333C20.521,21.333,0,41.979,0,67.375c0,6.938,1.583,13.667,4.688,20
			c34.083,69.958,91.25,169.167,141.688,256.708c26.354,45.75,51.25,88.958,69.25,121.792c8.521,15.521,23.604,24.792,40.396,24.792
			c16.771,0,31.854-9.271,40.375-24.792c17.979-32.813,42.854-76,69.188-121.708c50.458-87.563,107.625-186.813,141.729-256.75
			C510.417,81.063,512,74.313,512,67.375C512,41.979,491.479,21.333,466.271,21.333z"/>
	</g>
</g>
</symbol>

<symbol id="power" viewBox="0 0 475.085 475.085" style="enable-background:new 0 0 475.085 475.085;"
	 xml:space="preserve">
<g>
	<g>
		<path d="M237.545,255.816c9.899,0,18.468-3.609,25.696-10.848c7.23-7.229,10.854-15.799,10.854-25.694V36.547
			c0-9.9-3.62-18.464-10.854-25.693C256.014,3.617,247.444,0,237.545,0c-9.9,0-18.464,3.621-25.697,10.854
			c-7.233,7.229-10.85,15.797-10.85,25.693v182.728c0,9.895,3.617,18.464,10.85,25.694
			C219.081,252.207,227.648,255.816,237.545,255.816z"/>
		<path d="M433.836,157.887c-15.325-30.642-36.878-56.339-64.666-77.084c-7.994-6.09-17.035-8.47-27.123-7.139
			c-10.089,1.333-18.083,6.091-23.983,14.273c-6.091,7.993-8.418,16.986-6.994,26.979c1.423,9.998,6.139,18.037,14.133,24.128
			c18.645,14.084,33.072,31.312,43.25,51.678c10.184,20.364,15.27,42.065,15.27,65.091c0,19.801-3.854,38.688-11.561,56.678
			c-7.706,17.987-18.13,33.544-31.265,46.679c-13.135,13.131-28.688,23.551-46.678,31.261c-17.987,7.71-36.878,11.57-56.673,11.57
			c-19.792,0-38.684-3.86-56.671-11.57c-17.989-7.71-33.547-18.13-46.682-31.261c-13.129-13.135-23.551-28.691-31.261-46.679
			c-7.708-17.99-11.563-36.877-11.563-56.678c0-23.026,5.092-44.724,15.274-65.091c10.183-20.364,24.601-37.591,43.253-51.678
			c7.994-6.095,12.703-14.133,14.133-24.128c1.427-9.989-0.903-18.986-6.995-26.979c-5.901-8.182-13.844-12.941-23.839-14.273
			c-9.994-1.332-19.085,1.049-27.268,7.139c-27.792,20.745-49.344,46.442-64.669,77.084c-15.324,30.646-22.983,63.288-22.983,97.927
			c0,29.697,5.806,58.054,17.415,85.082c11.613,27.028,27.218,50.34,46.826,69.948c19.602,19.603,42.919,35.215,69.949,46.815
			c27.028,11.615,55.388,17.426,85.08,17.426c29.693,0,58.052-5.811,85.081-17.426c27.031-11.604,50.347-27.213,69.952-46.815
			c19.602-19.602,35.207-42.92,46.818-69.948s17.412-55.392,17.412-85.082C456.809,221.174,449.16,188.532,433.836,157.887z"/>
	</g>
</g>
</symbol>

<symbol id="pause" viewBox="0 0 512 512" style="enable-background:new 0 0 512 512;" xml:space="preserve">
<g>
	<g>
		<path d="M181.333,0H74.667c-17.643,0-32,14.357-32,32v448c0,17.643,14.357,32,32,32h106.667c17.643,0,32-14.357,32-32V32
			C213.333,14.357,198.976,0,181.333,0z"/>
	</g>
</g>
<g>
	<g>
		<path d="M437.333,0H330.667c-17.643,0-32,14.357-32,32v448c0,17.643,14.357,32,32,32h106.667c17.643,0,32-14.357,32-32V32
			C469.333,14.357,454.976,0,437.333,0z"/>
	</g>
</g>
</symbol>

<symbol id="play" viewBox="0 0 494.148 494.148" style="enable-background:new 0 0 494.148 494.148;" xml:space="preserve">
<g>
	<g>
		<path d="M405.284,201.188L130.804,13.28C118.128,4.596,105.356,0,94.74,0C74.216,0,61.52,16.472,61.52,44.044v406.124
			c0,27.54,12.68,43.98,33.156,43.98c10.632,0,23.2-4.6,35.904-13.308l274.608-187.904c17.66-12.104,27.44-28.392,27.44-45.884
			C432.632,229.572,422.964,213.288,405.284,201.188z"/>
	</g>
</g>
</symbol>

<symbol id="check-mark" viewBox="0 0 32.296 32.296" style="enable-background:new 0 0 32.296 32.296;" xml:space="preserve">
<g>
	<path d="M31.923,9.14L13.417,27.642c-0.496,0.494-1.299,0.494-1.793,0L0.37,16.316
		c-0.494-0.496-0.494-1.302,0-1.795l2.689-2.687c0.496-0.495,1.299-0.495,1.793,0l7.678,7.729L27.438,4.654
		c0.494-0.494,1.297-0.494,1.795,0l2.689,2.691C32.421,7.84,32.421,8.646,31.923,9.14z"/>
</g>
</symbol>


</svg>





